# xmcd
#
# Track frame offsets:
#	150
#	17404
#	33024
#	49819
#	66785
#	77417
#	89270
#	115694
#	136271
#	156661
#	170035
#	188595
#
# Disc length: 2691 seconds
#
# Revision: 0
# Processed by: cddbd v1.5.2PL0 Copyright (c) Steve Scherf et al.
# Submitted via: dBpowerAMP V4.0
#
DISCID=8e0a810c
DTITLE=The Carrivick Sisters - Jupiters Corner
DYEAR=2009
DGENRE=Country
TTITLE0=Darling Corey
TTITLE1=Stars
TTITLE2=Only Hills
TTITLE3=The William and Emma
TTITLE4=Song for the Year
TTITLE5=The Herzogin Cecile
TTITLE6=The Sticky Bread Set
TTITLE7=All the Times That I'm Not There
TTITLE8=The Old Apple Tree
TTITLE9=Waiting for a Train
TTITLE10=Slip Away
TTITLE11=Jupiters Corner
EXTD=
EXTT0=
EXTT1=
EXTT2=
EXTT3=
EXTT4=
EXTT5=
EXTT6=
EXTT7=
EXTT8=
EXTT9=
EXTT10=
EXTT11=
PLAYORDER=
